<svg width="0" height="0" focusable="false" xmlns="http://www.w3.org/2000/svg" xmlns:xlink="http://www.w3.org/1999/xlink" viewBox="0 0 19.98 13.271" preserveAspectRatio="xMidYMid meet" class="inline-block align-middle overflow-visible box-content -leading-[0.125em] size-28 text-black" role="img" aria-hidden="true"><path d="M4.56 13.272c2.227 0 3.975-1.124 4.922-2.989h.098c.83 1.875 2.549 2.989 4.844 2.989 2.392 0 4.219-1.026 4.99-2.862.078-.195.137-.4.137-.556 0-.479-.322-.791-.81-.791-.294 0-.509.126-.684.39-.889 1.553-2.002 2.237-3.701 2.237-2.442 0-4.004-1.807-4.004-4.493V7.07h8.222c.654 0 1.045-.4 1.045-1.084 0-3.515-2.148-5.976-5.283-5.976-2.12 0-3.691 1.035-4.522 2.773h-.078C9.238 1.045 7.55.01 5.332.01 3.222.01 1.396.996.722 2.5a1.86 1.86 0 0 0-.234.85c0 .488.332.81.801.81.361 0 .606-.146.762-.469.664-1.455 1.738-2.08 3.31-2.08 1.905 0 3.184 1.211 3.184 2.96v1.074l-3.818.205C1.67 6.006 0 7.314 0 9.492c0 2.285 1.787 3.78 4.56 3.78m.06-1.563c-1.68 0-2.774-.937-2.774-2.246s1.084-2.07 3.076-2.188l3.623-.205v1.133c0 1.934-1.719 3.506-3.926 3.506m5.732-6.064c.146-2.393 1.67-4.053 3.847-4.053 2.149 0 3.516 1.62 3.555 4.053Z" fill="currentColor" fill-opacity="0.85"></path></svg>
